<svg width="123" height="115" viewBox="0 0 123 115" fill="none" xmlns="http://www.w3.org/2000/svg">
<path d="M119.551 35.9633C108.372 6.53957 73.2913 -7.69144 41.2458 4.19768C9.20027 16.0868 -7.7351 49.6161 3.44362 79.0398C13.2453 104.839 41.3769 118.911 69.7327 114.047L55.9618 77.8004L44.3511 82.108L38.2757 66.1169L49.8864 61.8092L44.8236 48.4833C40.9151 38.1956 46.85 26.4454 58.0543 22.2885L72.5677 16.9039L78.6431 32.8951L67.0324 37.2028C63.8395 38.3874 62.1384 41.7553 63.2522 44.687L67.3025 55.3478L84.7185 48.8863L90.7939 64.8774L73.3778 71.3389L87.4525 108.385C115.757 94.8431 130.061 63.6281 119.551 35.9633Z" fill="#FF1054"/>
</svg>
