<svg width="117" height="99" viewBox="0 0 117 99" fill="none" xmlns="http://www.w3.org/2000/svg">
<path fill-rule="evenodd" clip-rule="evenodd" d="M33.6286 0.0778331C41.8227 0.671492 50.3609 4.66526 58.5342 12.7481C66.7054 4.66751 75.2361 0.681352 83.4225 0.100895C92.6618 -0.554261 100.83 3.1794 106.74 9.07012C118.358 20.652 122.007 41.6095 107.59 56.0247C107.541 56.0734 107.491 56.1208 107.44 56.1669L61.3392 97.919C59.7472 99.3603 57.3211 99.3603 55.729 97.919L9.62815 56.1669C9.57717 56.1208 9.52737 56.0734 9.47873 56.0247C-5.01387 41.5344 -1.38475 20.5745 10.2721 9.0016C16.1962 3.12016 24.3807 -0.592112 33.6286 0.0778331Z" fill="#FF1054"/>
<path d="M19.96 50.24C18.8267 50.24 17.8467 50.0667 17.02 49.72C16.1933 49.36 15.5467 48.88 15.08 48.28L16.58 46.92C17.0067 47.3867 17.4933 47.7467 18.04 48C18.6 48.2533 19.2467 48.38 19.98 48.38C20.62 48.38 21.1333 48.2733 21.52 48.06C21.9067 47.8467 22.1 47.52 22.1 47.08C22.1 46.7067 21.9667 46.4533 21.7 46.32C21.4467 46.1867 21.1067 46.0867 20.68 46.02L19.02 45.76C18.5933 45.6933 18.1733 45.6 17.76 45.48C17.36 45.3467 17 45.1667 16.68 44.94C16.3733 44.7133 16.1267 44.4267 15.94 44.08C15.7533 43.72 15.66 43.2867 15.66 42.78C15.66 41.7 16.06 40.8733 16.86 40.3C17.6733 39.7267 18.7867 39.44 20.2 39.44C21.2 39.44 22.0467 39.58 22.74 39.86C23.4467 40.14 24.0267 40.5333 24.48 41.04L23.14 42.52C22.8467 42.2 22.4533 41.92 21.96 41.68C21.48 41.4267 20.8667 41.3 20.12 41.3C18.8133 41.3 18.16 41.7067 18.16 42.52C18.16 42.8933 18.2933 43.1533 18.56 43.3C18.8267 43.4333 19.1733 43.5333 19.6 43.6L21.24 43.86C21.68 43.9267 22.1 44.0267 22.5 44.16C22.9133 44.28 23.2733 44.4533 23.58 44.68C23.9 44.9067 24.1533 45.1933 24.34 45.54C24.5267 45.8867 24.62 46.3133 24.62 46.82C24.62 47.8867 24.2067 48.7267 23.38 49.34C22.5667 49.94 21.4267 50.24 19.96 50.24ZM32.6922 50C31.7055 50 30.9789 49.74 30.5122 49.22C30.0455 48.7 29.8122 48.0267 29.8122 47.2V41.7H26.8122V39.68H28.8522C29.2655 39.68 29.5589 39.6 29.7322 39.44C29.9055 39.2667 29.9922 38.9667 29.9922 38.54V36.04H32.3722V39.68H36.5722V41.7H32.3722V47.98H36.5722V50H32.6922ZM38.5844 50.02L39.9644 48.36C39.2844 47.4667 38.9444 46.2933 38.9444 44.84C38.9444 44.0133 39.0577 43.2667 39.2844 42.6C39.5244 41.9333 39.8577 41.3667 40.2844 40.9C40.7244 40.4333 41.251 40.0733 41.8644 39.82C42.491 39.5667 43.1977 39.44 43.9844 39.44C44.5177 39.44 45.011 39.5 45.4644 39.62C45.931 39.74 46.3444 39.9133 46.7044 40.14L47.9644 38.62L49.3844 39.66L48.0044 41.32C48.6844 42.2267 49.0244 43.4 49.0244 44.84C49.0244 45.6667 48.9044 46.4133 48.6644 47.08C48.4377 47.7467 48.1044 48.3133 47.6644 48.78C47.2377 49.2467 46.711 49.6067 46.0844 49.86C45.4577 50.1133 44.7577 50.24 43.9844 50.24C43.451 50.24 42.951 50.18 42.4844 50.06C42.031 49.94 41.6244 49.7667 41.2644 49.54L40.0044 51.06L38.5844 50.02ZM43.9844 41.4C43.251 41.4 42.671 41.6267 42.2444 42.08C41.8177 42.52 41.6044 43.1733 41.6044 44.04V45.52C41.6044 45.6667 41.611 45.82 41.6244 45.98C41.6377 46.14 41.6644 46.28 41.7044 46.4L45.4444 41.84C45.2577 41.6933 45.0377 41.5867 44.7844 41.52C44.5444 41.44 44.2777 41.4 43.9844 41.4ZM43.9844 48.28C44.7177 48.28 45.2977 48.06 45.7244 47.62C46.151 47.1667 46.3644 46.5067 46.3644 45.64V44.16C46.3644 44.0133 46.3577 43.86 46.3444 43.7C46.331 43.54 46.3044 43.4 46.2644 43.28L42.5244 47.84C42.711 47.9867 42.9244 48.1 43.1644 48.18C43.4177 48.2467 43.691 48.28 43.9844 48.28ZM56.6766 50C55.6899 50 54.9632 49.74 54.4966 49.22C54.0299 48.7 53.7966 48.0267 53.7966 47.2V41.7H50.7966V39.68H52.8366C53.2499 39.68 53.5432 39.6 53.7166 39.44C53.8899 39.2667 53.9766 38.9667 53.9766 38.54V36.04H56.3566V39.68H60.5566V41.7H56.3566V47.98H60.5566V50H56.6766ZM75.4609 50V39.68H78.0209V41.5H78.1209C78.3476 40.94 78.6943 40.46 79.1609 40.06C79.6409 39.6467 80.3009 39.44 81.1409 39.44C82.1543 39.44 82.9743 39.78 83.6009 40.46C84.2409 41.1267 84.5609 42.0867 84.5609 43.34V50H82.0009V43.7C82.0009 42.2067 81.3543 41.46 80.0609 41.46C79.7943 41.46 79.5409 41.4933 79.3009 41.56C79.0609 41.6267 78.8409 41.7333 78.6409 41.88C78.4543 42.0133 78.3009 42.18 78.1809 42.38C78.0743 42.58 78.0209 42.82 78.0209 43.1V50H75.4609ZM93.8931 48.18H93.7931C93.5665 48.74 93.2131 49.2267 92.7331 49.64C92.2665 50.04 91.6131 50.24 90.7731 50.24C89.7598 50.24 88.9331 49.9067 88.2931 49.24C87.6665 48.56 87.3531 47.5933 87.3531 46.34V39.68H89.9131V45.98C89.9131 47.4733 90.5598 48.22 91.8531 48.22C92.1065 48.22 92.3531 48.1867 92.5931 48.12C92.8465 48.0533 93.0665 47.9533 93.2531 47.82C93.4531 47.6733 93.6065 47.5 93.7131 47.3C93.8331 47.1 93.8931 46.86 93.8931 46.58V39.68H96.4531V50H93.8931V48.18Z" fill="white"/>
</svg>
