<svg width="88" height="75" viewBox="0 0 88 75" fill="none" xmlns="http://www.w3.org/2000/svg">
<path fill-rule="evenodd" clip-rule="evenodd" d="M25.2944 0.0585526C31.4577 0.505153 37.8799 3.5096 44.0276 9.59021C50.1737 3.5113 56.5902 0.51257 62.7478 0.0759015C69.6973 -0.416961 75.8409 2.39181 80.2862 6.8233C89.0252 15.5362 91.7696 31.3021 80.9255 42.1465C80.889 42.1831 80.8513 42.2188 80.8129 42.2535L46.1374 73.6629C44.9399 74.7472 43.1151 74.7472 41.9176 73.6629L7.24199 42.2535C7.20365 42.2188 7.16618 42.1831 7.1296 42.1465C-3.77127 31.2456 -1.04156 15.4779 7.72637 6.77176C12.1822 2.34724 18.3384 -0.445436 25.2944 0.0585526Z" fill="#FF1054"/>
<path d="M7.84 37.24C6.64 37.24 5.61333 37.0333 4.76 36.62C3.92 36.2067 3.23333 35.66 2.7 34.98L4.28 33.34C4.8 33.94 5.36 34.3867 5.96 34.68C6.57333 34.96 7.22667 35.1 7.92 35.1C8.72 35.1 9.33333 34.92 9.76 34.56C10.1867 34.2 10.4 33.68 10.4 33C10.4 32.44 10.24 32.02 9.92 31.74C9.6 31.4467 9.06 31.24 8.3 31.12L6.82 30.88C5.52667 30.6533 4.60667 30.1867 4.06 29.48C3.51333 28.76 3.24 27.9133 3.24 26.94C3.24 25.6067 3.67333 24.5867 4.54 23.88C5.40667 23.16 6.60667 22.8 8.14 22.8C9.23333 22.8 10.1733 22.9733 10.96 23.32C11.76 23.6667 12.4 24.14 12.88 24.74L11.34 26.38C10.9667 25.94 10.52 25.5933 10 25.34C9.48 25.0733 8.86667 24.94 8.16 24.94C6.64 24.94 5.88 25.5667 5.88 26.82C5.88 27.3533 6.04 27.76 6.36 28.04C6.68 28.32 7.22667 28.5267 8 28.66L9.46 28.92C10.6733 29.1467 11.5733 29.5933 12.16 30.26C12.7467 30.9267 13.04 31.78 13.04 32.82C13.04 33.4733 12.9267 34.0733 12.7 34.62C12.4733 35.1533 12.14 35.62 11.7 36.02C11.26 36.4067 10.7133 36.7067 10.06 36.92C9.42 37.1333 8.68 37.24 7.84 37.24ZM20.6922 37C19.7055 37 18.9789 36.74 18.5122 36.22C18.0455 35.7 17.8122 35.0267 17.8122 34.2V28.7H14.8122V26.68H16.8522C17.2655 26.68 17.5589 26.6 17.7322 26.44C17.9055 26.2667 17.9922 25.9667 17.9922 25.54V23.04H20.3722V26.68H24.5722V28.7H20.3722V34.98H24.5722V37H20.6922ZM26.5844 37.02L27.9644 35.36C27.2844 34.4667 26.9444 33.2933 26.9444 31.84C26.9444 31.0133 27.0577 30.2667 27.2844 29.6C27.5244 28.9333 27.8577 28.3667 28.2844 27.9C28.7244 27.4333 29.251 27.0733 29.8644 26.82C30.491 26.5667 31.1977 26.44 31.9844 26.44C32.5177 26.44 33.011 26.5 33.4644 26.62C33.931 26.74 34.3444 26.9133 34.7044 27.14L35.9644 25.62L37.3844 26.66L36.0044 28.32C36.6844 29.2267 37.0244 30.4 37.0244 31.84C37.0244 32.6667 36.9044 33.4133 36.6644 34.08C36.4377 34.7467 36.1044 35.3133 35.6644 35.78C35.2377 36.2467 34.711 36.6067 34.0844 36.86C33.4577 37.1133 32.7577 37.24 31.9844 37.24C31.451 37.24 30.951 37.18 30.4844 37.06C30.031 36.94 29.6244 36.7667 29.2644 36.54L28.0044 38.06L26.5844 37.02ZM31.9844 28.4C31.251 28.4 30.671 28.6267 30.2444 29.08C29.8177 29.52 29.6044 30.1733 29.6044 31.04V32.52C29.6044 32.6667 29.611 32.82 29.6244 32.98C29.6377 33.14 29.6644 33.28 29.7044 33.4L33.4444 28.84C33.2577 28.6933 33.0377 28.5867 32.7844 28.52C32.5444 28.44 32.2777 28.4 31.9844 28.4ZM31.9844 35.28C32.7177 35.28 33.2977 35.06 33.7244 34.62C34.151 34.1667 34.3644 33.5067 34.3644 32.64V31.16C34.3644 31.0133 34.3577 30.86 34.3444 30.7C34.331 30.54 34.3044 30.4 34.2644 30.28L30.5244 34.84C30.711 34.9867 30.9244 35.1 31.1644 35.18C31.4177 35.2467 31.691 35.28 31.9844 35.28ZM44.6766 37C43.6899 37 42.9632 36.74 42.4966 36.22C42.0299 35.7 41.7966 35.0267 41.7966 34.2V28.7H38.7966V26.68H40.8366C41.2499 26.68 41.5432 26.6 41.7166 26.44C41.8899 26.2667 41.9766 25.9667 41.9766 25.54V23.04H44.3566V26.68H48.5566V28.7H44.3566V34.98H48.5566V37H44.6766ZM63.4609 37V26.68H66.0209V28.5H66.1209C66.3476 27.94 66.6943 27.46 67.1609 27.06C67.6409 26.6467 68.3009 26.44 69.1409 26.44C70.1543 26.44 70.9743 26.78 71.6009 27.46C72.2409 28.1267 72.5609 29.0867 72.5609 30.34V37H70.0009V30.7C70.0009 29.2067 69.3543 28.46 68.0609 28.46C67.7943 28.46 67.5409 28.4933 67.3009 28.56C67.0609 28.6267 66.8409 28.7333 66.6409 28.88C66.4543 29.0133 66.3009 29.18 66.1809 29.38C66.0743 29.58 66.0209 29.82 66.0209 30.1V37H63.4609ZM81.8931 35.18H81.7931C81.5665 35.74 81.2131 36.2267 80.7331 36.64C80.2665 37.04 79.6131 37.24 78.7731 37.24C77.7598 37.24 76.9331 36.9067 76.2931 36.24C75.6665 35.56 75.3531 34.5933 75.3531 33.34V26.68H77.9131V32.98C77.9131 34.4733 78.5598 35.22 79.8531 35.22C80.1065 35.22 80.3531 35.1867 80.5931 35.12C80.8465 35.0533 81.0665 34.9533 81.2531 34.82C81.4531 34.6733 81.6065 34.5 81.7131 34.3C81.8331 34.1 81.8931 33.86 81.8931 33.58V26.68H84.4531V37H81.8931V35.18Z" fill="white"/>
</svg>
