<svg width="155" height="155" viewBox="0 0 155 155" fill="none" xmlns="http://www.w3.org/2000/svg">
<path d="M141.258 32.8749C144.715 33.9648 147.597 36.3833 149.271 39.5983C150.945 42.8134 151.273 46.5616 150.183 50.0185L121.417 141.258C120.328 144.715 117.909 147.597 114.694 149.271C111.479 150.945 107.731 151.273 104.274 150.183L13.0343 121.417C9.57739 120.327 6.69504 117.909 5.0213 114.694C3.34757 111.479 3.01956 107.731 4.10943 104.274L32.875 13.0342C33.9649 9.57733 36.3834 6.69497 39.5984 5.02124C42.8134 3.34751 46.5617 3.0195 50.0186 4.10937L141.258 32.8749ZM106.152 132.863L117.042 98.3221C118.818 92.6874 118.284 86.5777 115.555 81.3372C112.827 76.0967 108.129 72.1546 102.494 70.3781C96.9547 68.6316 89.4344 69.9864 84.7035 74.0835L86.9842 66.8495L68.8015 61.1169L51.6038 115.665L69.7865 121.398L79.9161 89.2683C81.4982 84.2501 86.8333 81.4183 91.8514 83.0004C94.2713 83.7633 96.2889 85.4562 97.4605 87.7067C98.6321 89.9573 98.8617 92.5811 98.0988 95.0009L87.9692 127.13L106.152 132.863ZM50.8467 44.2073C53.7505 45.1228 56.899 44.8473 59.5997 43.4413C62.3003 42.0354 64.3318 39.6142 65.2473 36.7104C67.1582 30.6495 63.8319 24.1555 57.771 22.2446C54.8499 21.3237 51.6827 21.6009 48.9659 23.0152C46.2492 24.4295 44.2056 26.8651 43.2847 29.7861C41.3738 35.8471 44.7858 42.2965 50.8467 44.2073ZM39.4819 111.843L56.6796 57.2952L38.6273 51.6037L21.4295 106.152L39.4819 111.843Z" fill="#FF1054"/>
</svg>
