<?xml version="1.0" encoding="UTF-8"?> <svg xmlns="http://www.w3.org/2000/svg" viewBox="0 0 149.627 50"><defs><style>.cls-1{fill:#ff1054;}.cls-2{fill:#fff;}</style></defs><title>Asset 1</title><g id="Layer_2" data-name="Layer 2"><g id="Layer_1-2" data-name="Layer 1"><rect class="cls-1" width="149.627" height="50"></rect><path class="cls-2" d="M97.53,31.214a4.609,4.609,0,0,0,1.908-.336,4.043,4.043,0,0,0,1.422-1.207h.072l.53,1.364h1.911V24.348a3.25,3.25,0,0,0-1.077-2.674,4.781,4.781,0,0,0-3.1-.88,8.158,8.158,0,0,0-3.841.907l.906,1.849a7.109,7.109,0,0,1,2.827-.727,1.364,1.364,0,0,1,1.562,1.525v.44l-1.741.054a6.478,6.478,0,0,0-3.37.839,2.646,2.646,0,0,0-1.118,2.356,3.17,3.17,0,0,0,.831,2.352A3.081,3.081,0,0,0,97.53,31.214Zm.288-4.362a3.4,3.4,0,0,1,1.777-.43l1.059-.036v.825a1.92,1.92,0,0,1-.57,1.454,2.1,2.1,0,0,1-1.522.548q-1.327,0-1.328-1.158A1.355,1.355,0,0,1,97.818,26.852Z"></path><path class="cls-2" d="M107.962,26.314a4.757,4.757,0,0,1,.511-2.544,1.847,1.847,0,0,1,1.66-.768,1.4,1.4,0,0,1,1.23.543,2.818,2.818,0,0,1,.385,1.629v5.861h2.738V24.492a3.8,3.8,0,0,0-.907-2.733,3.509,3.509,0,0,0-2.657-.947,4.284,4.284,0,0,0-1.826.373,2.89,2.89,0,0,0-1.261,1.1h-.152L107.315,21h-2.091V31.035h2.738Z"></path><path class="cls-2" d="M116.064,34.719a5.828,5.828,0,0,0,3.208.732,7.65,7.65,0,0,0,4.215-.97,3.09,3.09,0,0,0,1.467-2.728,2.533,2.533,0,0,0-.866-2.082,3.891,3.891,0,0,0-2.518-.71h-1.7q-1.509,0-1.508-.592a.907.907,0,0,1,.421-.718l.4.045.493.027a4.88,4.88,0,0,0,3.128-.9,3.045,3.045,0,0,0,1.127-2.518A2.736,2.736,0,0,0,123.5,22.8l1.571-.4V21h-3.5q-.162-.036-.74-.113a7.984,7.984,0,0,0-1-.076,4.618,4.618,0,0,0-3.052.9,3.134,3.134,0,0,0-1.068,2.54,3.343,3.343,0,0,0,.461,1.777,2.7,2.7,0,0,0,1.253,1.095,3.833,3.833,0,0,0-.961.749,1.449,1.449,0,0,0-.018,1.822,1.843,1.843,0,0,0,.736.588,3.2,3.2,0,0,0-1.659.871,2.14,2.14,0,0,0-.566,1.516A2.322,2.322,0,0,0,116.064,34.719Zm3.766-12.246q1.488,0,1.489,1.812a2.1,2.1,0,0,1-.359,1.293,1.324,1.324,0,0,1-1.13.475,1.352,1.352,0,0,1-1.136-.475,2.039,2.039,0,0,1-.372-1.293Q118.322,22.473,119.83,22.473Zm-2,9.042a2.149,2.149,0,0,1,1.261-.355h1.419a4.031,4.031,0,0,1,1.525.216.782.782,0,0,1,.494.781,1.233,1.233,0,0,1-.835,1.1,5.4,5.4,0,0,1-2.307.4,3,3,0,0,1-1.521-.322.991.991,0,0,1-.543-.889A1.094,1.094,0,0,1,117.832,31.515Z"></path><path class="cls-2" d="M86.714,26.314a4.768,4.768,0,0,1,.511-2.531A1.837,1.837,0,0,1,88.885,23Q90.5,23,90.5,25.174v5.861h2.738V24.492a3.779,3.779,0,0,0-.916-2.728,3.557,3.557,0,0,0-2.684-.952,3.173,3.173,0,0,0-2.908,1.472h-.143l.063-.808c.041-.819.063-1.34.063-1.561V17.069H83.976V31.035h2.738Z"></path><path class="cls-2" d="M78.6,31.214a7.607,7.607,0,0,0,1.71-.161,4.43,4.43,0,0,0,1.341-.583V28.127a5.263,5.263,0,0,1-1.346.659A4.857,4.857,0,0,1,78.842,29q-2.136,0-2.137-2.945,0-3.032,2.137-3.033a3.865,3.865,0,0,1,1.113.166q.556.166,1.2.427l.809-2.119a6.978,6.978,0,0,0-3.124-.682,4.778,4.778,0,0,0-3.653,1.351,5.489,5.489,0,0,0-1.274,3.909Q73.915,31.214,78.6,31.214Z"></path><path class="cls-2" d="M130.3,31.214a9.645,9.645,0,0,0,1.992-.175,6.4,6.4,0,0,0,1.534-.534V28.387a8.5,8.5,0,0,1-1.687.6,7.5,7.5,0,0,1-1.714.189,2.432,2.432,0,0,1-1.813-.655,2.629,2.629,0,0,1-.69-1.822h6.47V25.372a4.588,4.588,0,0,0-1.184-3.348,4.421,4.421,0,0,0-3.312-1.212,4.488,4.488,0,0,0-3.487,1.378,5.568,5.568,0,0,0-1.261,3.9,5.06,5.06,0,0,0,1.364,3.787A5.178,5.178,0,0,0,130.3,31.214Zm-1.751-7.9a1.738,1.738,0,0,1,1.364-.552,1.8,1.8,0,0,1,1.383.552,2.287,2.287,0,0,1,.529,1.566H127.98A2.556,2.556,0,0,1,128.545,23.312Z"></path><rect class="cls-2" x="56.626" y="21.001" width="2.738" height="10.034"></rect><path class="cls-2" d="M66.31,31.214a7.591,7.591,0,0,0,1.709-.161,4.424,4.424,0,0,0,1.342-.583V28.127a5.263,5.263,0,0,1-1.346.659A4.857,4.857,0,0,1,66.552,29q-2.138,0-2.137-2.945,0-3.032,2.137-3.033a3.87,3.87,0,0,1,1.113.166q.555.166,1.2.427l.808-2.119a6.976,6.976,0,0,0-3.123-.682A4.778,4.778,0,0,0,62.9,22.163a5.485,5.485,0,0,0-1.275,3.909Q61.624,31.214,66.31,31.214Z"></path><rect class="cls-2" x="25.273" y="17.069" width="2.738" height="13.965"></rect><path class="cls-2" d="M33.324,31.214a4.6,4.6,0,0,0,1.907-.336,4.043,4.043,0,0,0,1.422-1.207h.072l.53,1.364h1.912V24.348a3.25,3.25,0,0,0-1.078-2.674,4.778,4.778,0,0,0-3.095-.88,8.165,8.165,0,0,0-3.842.907l.906,1.849a7.117,7.117,0,0,1,2.828-.727,1.364,1.364,0,0,1,1.561,1.525v.44l-1.741.054a6.481,6.481,0,0,0-3.37.839,2.648,2.648,0,0,0-1.117,2.356,3.17,3.17,0,0,0,.83,2.352A3.083,3.083,0,0,0,33.324,31.214Zm.287-4.362a3.4,3.4,0,0,1,1.777-.43l1.059-.036v.825a1.92,1.92,0,0,1-.569,1.454,2.1,2.1,0,0,1-1.522.548q-1.329,0-1.328-1.158A1.355,1.355,0,0,1,33.611,26.852Z"></path><path class="cls-2" d="M17.346,31.385q0-.2-.143-1.454h.143a3.325,3.325,0,0,0,2.773,1.283,3.436,3.436,0,0,0,2.047-.619,3.916,3.916,0,0,0,1.341-1.8A7.513,7.513,0,0,0,23.979,26a6.354,6.354,0,0,0-1.006-3.815,3.255,3.255,0,0,0-2.782-1.373,3.167,3.167,0,0,0-2.845,1.49H17.22L16.834,21H14.609v14.45h2.737Zm0-5.7a3.585,3.585,0,0,1,.484-2.06A1.73,1.73,0,0,1,19.311,23a1.548,1.548,0,0,1,1.423.74,4.337,4.337,0,0,1,.454,2.222Q21.188,29,19.347,29a1.715,1.715,0,0,1-1.521-.7,4.231,4.231,0,0,1-.48-2.316Z"></path><path class="cls-2" d="M58,19.753a1.561,1.561,0,0,0,1.116-.355,1.3,1.3,0,0,0,.372-.991q0-1.337-1.488-1.338t-1.491,1.338Q56.509,19.752,58,19.753Z"></path><path class="cls-2" d="M49.483,27.894a3.609,3.609,0,0,0,.749,2.49,3.072,3.072,0,0,0,2.391.83,6.127,6.127,0,0,0,2.513-.458V28.719a5.91,5.91,0,0,1-1.723.315,1.286,1.286,0,0,1-.865-.279,1.065,1.065,0,0,1-.328-.861V23.056h2.809V21H52.22V18.864H50.469l-.789,2.119-1.508.915v1.158h1.311Z"></path><path class="cls-2" d="M41.443,25.874a8.067,8.067,0,0,0,1.7.9q.807.342,1.292.6a2.841,2.841,0,0,1,.682.459.713.713,0,0,1,.2.524q0,.862-1.489.862a6.99,6.99,0,0,1-1.684-.242,9.535,9.535,0,0,1-1.718-.6v2.262a6.971,6.971,0,0,0,1.444.435,10.068,10.068,0,0,0,1.867.148,5.308,5.308,0,0,0,3.21-.807,2.767,2.767,0,0,0,1.072-2.352,2.921,2.921,0,0,0-.261-1.284,2.626,2.626,0,0,0-.807-.951,7.969,7.969,0,0,0-1.723-.888,10.5,10.5,0,0,1-1.71-.8.769.769,0,0,1-.391-.637q0-.655,1.212-.655a4.446,4.446,0,0,1,1.337.206,15.052,15.052,0,0,1,1.409.53L47.91,21.6a8.35,8.35,0,0,0-3.527-.79,5.052,5.052,0,0,0-2.94.732,2.385,2.385,0,0,0-1.036,2.069,3.132,3.132,0,0,0,.246,1.314A2.53,2.53,0,0,0,41.443,25.874Z"></path></g></g></svg> 