<svg width="217" height="213" viewBox="0 0 217 213" fill="none" xmlns="http://www.w3.org/2000/svg">
<path fill-rule="evenodd" clip-rule="evenodd" d="M217 26.4452L137.635 0V13.4702C137.635 21.1974 134.566 28.6081 129.102 34.072C123.638 39.536 116.227 42.6056 108.5 42.6056C100.773 42.6056 93.3621 39.536 87.8982 34.072C82.4343 28.6081 79.3647 21.1974 79.3647 13.4702V0L0 26.4549L13.3051 86.3086H45.3734V212.562H171.627V86.3086H203.695L217 26.4452Z" fill="#FF1054"/>
<path d="M55.0832 120.07V101.494H58.8992V104.05H59.1152C59.4032 103.234 59.8112 102.538 60.3392 101.962C60.8912 101.362 61.6592 101.062 62.6432 101.062C63.5792 101.062 64.3232 101.338 64.8752 101.89C65.4272 102.418 65.7872 103.174 65.9552 104.158H66.1352C66.4472 103.318 66.9032 102.598 67.5032 101.998C68.1272 101.374 69.0032 101.062 70.1312 101.062C71.4992 101.062 72.4832 101.554 73.0832 102.538C73.6832 103.522 73.9832 104.974 73.9832 106.894V120.07H70.2032V107.434C70.2032 106.354 70.0472 105.598 69.7352 105.166C69.4472 104.734 69.0032 104.518 68.4032 104.518C67.8512 104.518 67.3832 104.698 66.9992 105.058C66.6392 105.418 66.4592 105.97 66.4592 106.714V120.07H62.6432V107.434C62.6432 106.354 62.4992 105.598 62.2112 105.166C61.9232 104.734 61.4792 104.518 60.8792 104.518C60.3032 104.518 59.8232 104.698 59.4392 105.058C59.0792 105.418 58.8992 105.97 58.8992 106.714V120.07H55.0832ZM86.5692 120.502C85.0812 120.502 83.7612 120.274 82.6092 119.818C81.4572 119.362 80.4852 118.714 79.6932 117.874C78.9252 117.034 78.3372 116.026 77.9292 114.85C77.5212 113.65 77.3172 112.306 77.3172 110.818C77.3172 109.306 77.5212 107.95 77.9292 106.75C78.3612 105.55 78.9612 104.53 79.7292 103.69C80.4972 102.85 81.4212 102.202 82.5012 101.746C83.6052 101.29 84.8412 101.062 86.2092 101.062C87.5532 101.062 88.7652 101.29 89.8452 101.746C90.9252 102.178 91.8372 102.802 92.5812 103.618C93.3492 104.434 93.9372 105.418 94.3452 106.57C94.7532 107.722 94.9572 108.994 94.9572 110.386V111.898H81.9252V112.366C81.9252 113.71 82.3452 114.802 83.1852 115.642C84.0252 116.458 85.2012 116.866 86.7132 116.866C87.8652 116.866 88.8492 116.638 89.6652 116.182C90.5052 115.702 91.2012 115.078 91.7532 114.31L94.3812 116.938C93.7092 117.922 92.7252 118.762 91.4292 119.458C90.1572 120.154 88.5372 120.502 86.5692 120.502ZM86.2452 104.446C84.9492 104.446 83.9052 104.854 83.1132 105.67C82.3212 106.486 81.9252 107.566 81.9252 108.91V109.162H90.3492V108.838C90.3492 107.494 89.9772 106.426 89.2332 105.634C88.5132 104.842 87.5172 104.446 86.2452 104.446ZM99.6231 116.434H104.231V105.13H99.6231V101.494H108.839V106.57H109.127C109.295 105.922 109.523 105.298 109.811 104.698C110.123 104.074 110.507 103.534 110.963 103.078C111.443 102.598 112.019 102.214 112.691 101.926C113.363 101.638 114.167 101.494 115.103 101.494H117.119V105.814H113.303C111.911 105.814 110.819 106.222 110.027 107.038C109.235 107.854 108.839 108.898 108.839 110.17V116.434H115.283V120.07H99.6231V116.434ZM130.029 120.502C128.613 120.502 127.341 120.274 126.213 119.818C125.085 119.362 124.125 118.714 123.333 117.874C122.565 117.034 121.965 116.014 121.533 114.814C121.125 113.614 120.921 112.27 120.921 110.782C120.921 109.294 121.125 107.95 121.533 106.75C121.965 105.55 122.565 104.53 123.333 103.69C124.125 102.85 125.073 102.202 126.177 101.746C127.305 101.29 128.577 101.062 129.993 101.062C131.961 101.062 133.545 101.47 134.745 102.286C135.945 103.102 136.857 104.182 137.481 105.526L133.917 107.47C133.581 106.678 133.101 106.042 132.477 105.562C131.877 105.058 131.049 104.806 129.993 104.806C128.625 104.806 127.569 105.202 126.825 105.994C126.105 106.786 125.745 107.866 125.745 109.234V112.33C125.745 113.674 126.105 114.754 126.825 115.57C127.569 116.362 128.649 116.758 130.065 116.758C131.169 116.758 132.045 116.506 132.693 116.002C133.365 115.498 133.905 114.826 134.313 113.986L137.769 116.038C137.145 117.358 136.197 118.438 134.925 119.278C133.677 120.094 132.045 120.502 130.029 120.502ZM142.795 93.4301H147.403V104.77H147.583C147.991 103.762 148.615 102.898 149.455 102.178C150.319 101.434 151.507 101.062 153.019 101.062C154.843 101.062 156.319 101.674 157.447 102.898C158.599 104.098 159.175 105.826 159.175 108.082V120.07H154.567V108.73C154.567 106.042 153.403 104.698 151.075 104.698C150.595 104.698 150.139 104.758 149.707 104.878C149.275 104.998 148.879 105.19 148.519 105.454C148.183 105.694 147.907 105.994 147.691 106.354C147.499 106.714 147.403 107.146 147.403 107.65V120.07H142.795V93.4301Z" fill="white"/>
</svg>
