<svg width="178" height="174" viewBox="0 0 178 174" fill="none" xmlns="http://www.w3.org/2000/svg">
<path fill-rule="evenodd" clip-rule="evenodd" d="M177.633 21.6476L112.666 0V11.0265C112.666 17.3519 110.154 23.4182 105.681 27.8909C101.208 32.3636 95.1419 34.8763 88.8166 34.8763C82.4912 34.8763 76.4249 32.3636 71.9522 27.8909C67.4795 23.4182 64.9668 17.3519 64.9668 11.0265V0L0 21.6556L10.8914 70.651H37.142V174H140.491V70.651H166.742L177.633 21.6476Z" fill="#FF1054"/>
<path d="M45.11 99V83.52H48.29V85.65H48.47C48.71 84.97 49.05 84.39 49.49 83.91C49.95 83.41 50.59 83.16 51.41 83.16C52.19 83.16 52.81 83.39 53.27 83.85C53.73 84.29 54.03 84.92 54.17 85.74H54.32C54.58 85.04 54.96 84.44 55.46 83.94C55.98 83.42 56.71 83.16 57.65 83.16C58.79 83.16 59.61 83.57 60.11 84.39C60.61 85.21 60.86 86.42 60.86 88.02V99H57.71V88.47C57.71 87.57 57.58 86.94 57.32 86.58C57.08 86.22 56.71 86.04 56.21 86.04C55.75 86.04 55.36 86.19 55.04 86.49C54.74 86.79 54.59 87.25 54.59 87.87V99H51.41V88.47C51.41 87.57 51.29 86.94 51.05 86.58C50.81 86.22 50.44 86.04 49.94 86.04C49.46 86.04 49.06 86.19 48.74 86.49C48.44 86.79 48.29 87.25 48.29 87.87V99H45.11ZM71.3483 99.36C70.1083 99.36 69.0083 99.17 68.0483 98.79C67.0883 98.41 66.2783 97.87 65.6183 97.17C64.9783 96.47 64.4883 95.63 64.1483 94.65C63.8083 93.65 63.6383 92.53 63.6383 91.29C63.6383 90.03 63.8083 88.9 64.1483 87.9C64.5083 86.9 65.0083 86.05 65.6483 85.35C66.2883 84.65 67.0583 84.11 67.9583 83.73C68.8783 83.35 69.9083 83.16 71.0483 83.16C72.1683 83.16 73.1783 83.35 74.0783 83.73C74.9783 84.09 75.7383 84.61 76.3583 85.29C76.9983 85.97 77.4883 86.79 77.8283 87.75C78.1683 88.71 78.3383 89.77 78.3383 90.93V92.19H67.4783V92.58C67.4783 93.7 67.8283 94.61 68.5283 95.31C69.2283 95.99 70.2083 96.33 71.4683 96.33C72.4283 96.33 73.2483 96.14 73.9283 95.76C74.6283 95.36 75.2083 94.84 75.6683 94.2L77.8583 96.39C77.2983 97.21 76.4783 97.91 75.3983 98.49C74.3383 99.07 72.9883 99.36 71.3483 99.36ZM71.0783 85.98C69.9983 85.98 69.1283 86.32 68.4683 87C67.8083 87.68 67.4783 88.58 67.4783 89.7V89.91H74.4983V89.64C74.4983 88.52 74.1883 87.63 73.5683 86.97C72.9683 86.31 72.1383 85.98 71.0783 85.98ZM82.2266 95.97H86.0666V86.55H82.2266V83.52H89.9066V87.75H90.1466C90.2866 87.21 90.4766 86.69 90.7166 86.19C90.9766 85.67 91.2966 85.22 91.6766 84.84C92.0766 84.44 92.5566 84.12 93.1166 83.88C93.6766 83.64 94.3466 83.52 95.1266 83.52H96.8066V87.12H93.6266C92.4666 87.12 91.5566 87.46 90.8966 88.14C90.2366 88.82 89.9066 89.69 89.9066 90.75V95.97H95.2766V99H82.2266V95.97ZM107.565 99.36C106.385 99.36 105.325 99.17 104.385 98.79C103.445 98.41 102.645 97.87 101.985 97.17C101.345 96.47 100.845 95.62 100.485 94.62C100.145 93.62 99.9748 92.5 99.9748 91.26C99.9748 90.02 100.145 88.9 100.485 87.9C100.845 86.9 101.345 86.05 101.985 85.35C102.645 84.65 103.435 84.11 104.355 83.73C105.295 83.35 106.355 83.16 107.535 83.16C109.175 83.16 110.495 83.5 111.495 84.18C112.495 84.86 113.255 85.76 113.775 86.88L110.805 88.5C110.525 87.84 110.125 87.31 109.605 86.91C109.105 86.49 108.415 86.28 107.535 86.28C106.395 86.28 105.515 86.61 104.895 87.27C104.295 87.93 103.995 88.83 103.995 89.97V92.55C103.995 93.67 104.295 94.57 104.895 95.25C105.515 95.91 106.415 96.24 107.595 96.24C108.515 96.24 109.245 96.03 109.785 95.61C110.345 95.19 110.795 94.63 111.135 93.93L114.015 95.64C113.495 96.74 112.705 97.64 111.645 98.34C110.605 99.02 109.245 99.36 107.565 99.36ZM118.203 76.8H122.043V86.25H122.193C122.533 85.41 123.053 84.69 123.753 84.09C124.473 83.47 125.463 83.16 126.723 83.16C128.243 83.16 129.473 83.67 130.413 84.69C131.373 85.69 131.853 87.13 131.853 89.01V99H128.013V89.55C128.013 87.31 127.043 86.19 125.103 86.19C124.703 86.19 124.323 86.24 123.963 86.34C123.603 86.44 123.273 86.6 122.973 86.82C122.693 87.02 122.463 87.27 122.283 87.57C122.123 87.87 122.043 88.23 122.043 88.65V99H118.203V76.8Z" fill="white"/>
</svg>
