<svg width="165" height="165" viewBox="0 0 165 165" fill="none" xmlns="http://www.w3.org/2000/svg">
<path d="M86.5422 15.827L132.838 38.7488C150.475 47.4809 157.71 68.9055 148.978 86.5422L126.056 132.839C121.859 141.317 114.465 147.78 105.502 150.807C96.539 153.833 86.7408 153.176 78.2627 148.978L31.9664 126.056C14.3298 117.324 7.09479 95.8995 15.8269 78.2628L38.7487 31.9665C42.9463 23.4884 50.3398 17.0251 59.3028 13.9984C68.2659 10.9716 78.0641 11.6294 86.5422 15.827ZM79.9823 26.3041C74.7201 23.6987 68.6384 23.2905 63.0751 25.1691C57.5119 27.0478 52.9228 31.0595 50.3174 36.3218L26.3041 84.8226C20.8738 95.7904 25.3539 109.057 36.3217 114.488L84.8226 138.501C90.0848 141.106 96.1665 141.515 101.73 139.636C107.293 137.757 111.882 133.745 114.487 128.483L138.501 79.9824C143.931 69.0145 139.451 55.7477 128.483 50.3175L79.9823 26.3041ZM129.075 60.9041C130.902 61.8088 132.295 63.4022 132.947 65.3339C133.599 67.2656 133.458 69.3773 132.553 71.2044C131.648 73.0316 130.055 74.4246 128.123 75.0769C126.192 75.7292 124.08 75.5874 122.253 74.6828C120.426 73.7781 119.033 72.1847 118.38 70.253C117.728 68.3213 117.87 66.2096 118.774 64.3825C119.679 62.5553 121.273 61.1623 123.204 60.51C125.136 59.8577 127.248 59.9995 129.075 60.9041ZM96.0464 54.8452C103.355 58.4638 108.927 64.8375 111.536 72.5642C114.145 80.291 113.578 88.7378 109.96 96.0464C106.341 103.355 99.9674 108.927 92.2407 111.536C84.514 114.145 76.0672 113.578 68.7585 109.96C61.4499 106.341 55.878 99.9675 53.2688 92.2407C50.6595 84.514 51.2265 76.0672 54.8451 68.7586C58.4637 61.4499 64.8375 55.8781 72.5642 53.2688C80.2909 50.6595 88.7377 51.2266 96.0464 54.8452ZM90.5888 65.8681C86.2036 63.6969 81.1355 63.3567 76.4995 64.9223C71.8635 66.4878 68.0392 69.8309 65.8681 74.2161C63.6969 78.6013 63.3567 83.6694 64.9222 88.3054C66.4878 92.9415 69.8309 96.7657 74.2161 98.9369C78.6013 101.108 83.6694 101.448 88.3054 99.8827C92.9414 98.3171 96.7657 94.974 98.9368 90.5889C101.108 86.2037 101.448 81.1356 99.8827 76.4995C98.3171 71.8635 94.974 68.0393 90.5888 65.8681Z" fill="#FF1054"/>
</svg>
