<svg width="116" height="101" viewBox="0 0 116 101" fill="none" xmlns="http://www.w3.org/2000/svg">
<path d="M58 16.4734L55.1291 19.2365C55.8803 20.0168 56.9168 20.4578 58 20.4578C59.0832 20.4578 60.1197 20.0168 60.8709 19.2365L58 16.4734ZM44.3259 84.5862C36.2739 78.2388 27.4694 72.0402 20.4847 64.175C13.6365 56.4639 8.85938 47.4656 8.85938 35.7921H0.890625C0.890625 49.9529 6.79016 60.7554 14.5263 69.4663C22.1259 78.0236 31.8135 84.8699 39.3925 90.8443L44.3259 84.5862ZM8.85938 35.7921C8.85938 24.3656 15.316 14.7835 24.1294 10.7548C32.6916 6.84102 44.1963 7.87749 55.1291 19.2365L60.8709 13.7104C47.8983 0.232537 32.8405 -1.98883 20.8165 3.50732C9.04377 8.88872 0.890625 21.3843 0.890625 35.7921H8.85938ZM39.3925 90.8443C42.1138 92.9895 45.0351 95.277 47.9955 97.0073C50.9551 98.7365 54.3323 100.142 58 100.142V92.1729C56.3553 92.1729 54.4199 91.5317 52.016 90.1271C49.6132 88.723 47.1204 86.7893 44.3259 84.5862L39.3925 90.8443ZM76.6076 90.8443C84.1864 84.8699 93.8742 78.0236 101.474 69.4663C109.21 60.7554 115.109 49.9529 115.109 35.7921H107.141C107.141 47.4656 102.364 56.4639 95.5153 64.175C88.5304 72.0402 79.726 78.2388 71.6744 84.5862L76.6076 90.8443ZM115.109 35.7921C115.109 21.3843 106.956 8.88872 95.1833 3.50732C83.1595 -1.98883 68.1017 0.232537 55.1291 13.7104L60.8709 19.2365C71.8035 7.87749 83.3082 6.84102 91.8704 10.7548C100.684 14.7835 107.141 24.3656 107.141 35.7921H115.109ZM71.6744 84.5862C68.8795 86.7893 66.3868 88.723 63.984 90.1271C61.5801 91.5317 59.6447 92.1729 58 92.1729V100.142C61.6677 100.142 65.0449 98.7365 68.0045 97.0073C70.9652 95.277 73.886 92.9895 76.6076 90.8443L71.6744 84.5862Z" fill="#FF1054"/>
</svg>
